# xmcd CD database file
#
# Track frame offsets:
#	150
#	25473
#	53824
#	79147
#	107498
#
# Disc length: 1575 seconds
#
# Revision: 5
# Processed by: cddbd v1.5.2PL0 Copyright (c) Steve Scherf et al.
# Submitted via: CDex 1.70beta3
#
DISCID=36062505
DTITLE=通信販売限定特典 SORA2-SONG - 英雄伝説Ⅵ 空の軌跡 SC 主題歌集 銀の意志 金の翼／I swear...
DYEAR=2006
DGENRE=Game
TTITLE0=山脇宏子 - 銀の意志 金の翼
TTITLE1=小寺可南子 - I swear...
TTITLE2=山脇宏子 - 銀の意志 金の翼(Less Vocal)
TTITLE3=小寺可南子 - I swear...(Less Vocal)
TTITLE4=山脇宏子 - 銀の意志 金の翼 Game Opening Version
EXTD=YEAR: 2006
EXTT0=
EXTT1=
EXTT2=
EXTT3=
EXTT4=
PLAYORDER=
